<?xml version="1.0" standalone="no"?>
<!DOCTYPE svg PUBLIC "-//W3C//DTD SVG 20010904//EN"
 "http://www.w3.org/TR/2001/REC-SVG-20010904/DTD/svg10.dtd">
<svg version="1.0" xmlns="http://www.w3.org/2000/svg"
 width="2557.000000pt" height="2557.000000pt" viewBox="0 0 2557.000000 2557.000000"
 preserveAspectRatio="xMidYMid meet">
<metadata>
Created by potrace 1.14, written by Peter Selinger 2001-2017
</metadata>
<g transform="translate(0.000000,2557.000000) scale(0.100000,-0.100000)"
fill="#000000" stroke="none">
<path d="M4058 17925 c-2 -1 -34 -5 -73 -8 -330 -29 -655 -259 -886 -627 -75
-120 -72 -114 -127 -225 -58 -115 -115 -256 -163 -400 -18 -55 -34 -102 -34
-105 -1 -3 -13 -43 -28 -90 -44 -143 -133 -469 -151 -560 -3 -14 -7 -34 -10
-45 -4 -17 -38 -180 -51 -250 -3 -11 -6 -37 -9 -57 -2 -21 -7 -41 -10 -46 -6
-10 -52 -17 -171 -28 -33 -3 -71 -7 -85 -9 -14 -2 -50 -7 -80 -10 -87 -10
-213 -42 -299 -75 -270 -104 -439 -324 -576 -750 -25 -80 -110 -403 -120 -459
-2 -14 -16 -81 -29 -148 -21 -103 -43 -218 -60 -323 -3 -14 -14 -79 -25 -145
-11 -66 -23 -138 -26 -159 -3 -21 -7 -48 -10 -60 -2 -12 -7 -39 -10 -61 -3
-22 -15 -98 -25 -170 -11 -71 -18 -131 -16 -132 2 -3 39 121 41 137 0 5 34 91
62 160 52 125 219 412 275 472 7 7 31 36 52 63 74 94 318 328 400 384 12 8 23
17 26 21 23 27 185 133 415 273 59 36 372 186 490 235 238 99 493 185 770 261
134 37 513 129 565 137 14 2 57 11 95 19 39 8 86 17 105 20 19 3 42 8 50 10 8
2 35 7 60 10 24 4 47 8 50 10 4 2 28 6 56 10 27 3 85 12 129 20 44 8 100 17
124 20 23 3 55 7 70 9 26 5 84 13 143 21 55 8 349 43 413 50 33 4 74 8 90 10
17 2 57 7 90 10 33 3 80 8 105 10 64 7 134 13 220 20 41 4 91 8 110 10 19 2
76 7 125 11 50 4 104 8 120 10 17 1 45 3 64 3 19 1 32 3 30 5 -4 4 -59 11
-189 21 -41 4 -91 8 -110 10 -19 2 -80 6 -135 10 -55 4 -116 8 -135 10 -19 2
-78 7 -130 10 -144 9 -218 14 -300 19 -41 3 -122 8 -180 11 -58 3 -130 8 -160
10 -30 2 -116 6 -190 10 -74 3 -160 8 -190 10 -30 3 -123 7 -205 10 -83 3
-184 8 -225 10 -217 12 -501 19 -803 19 l-339 1 7 45 c4 25 20 101 36 170 91
388 271 774 484 1037 59 74 214 225 276 270 256 188 524 227 769 112 194 -92
398 -315 543 -594 43 -83 117 -244 117 -255 0 -6 4 -18 10 -28 5 -9 26 -60 46
-112 51 -133 114 -219 215 -294 l37 -27 -5 53 c-29 351 -125 723 -262 1012
-238 506 -611 849 -1021 939 -57 13 -224 28 -232 22z"/>
<path d="M5813 15154 c-96 -14 -220 -37 -288 -55 -22 -6 -47 -13 -55 -15 -8
-2 -39 -10 -67 -19 -29 -8 -74 -21 -100 -29 -58 -16 -307 -109 -383 -143 -30
-13 -77 -34 -105 -46 -94 -40 -371 -185 -465 -241 -51 -31 -94 -56 -96 -56 -4
0 -166 -107 -180 -118 -5 -5 -19 -14 -30 -20 -27 -14 -266 -194 -311 -234
-117 -104 -175 -158 -237 -222 -401 -412 -556 -817 -445 -1162 44 -135 244
-483 386 -669 33 -43 34 -45 78 -105 156 -217 457 -569 740 -869 128 -135 167
-175 324 -336 86 -88 185 -194 221 -235 36 -41 79 -90 97 -109 l31 -35 6 35
c3 19 8 45 10 59 5 27 33 155 41 180 2 8 13 49 24 90 208 767 701 1513 1291
1953 52 39 96 72 98 73 2 1 5 149 8 330 2 181 6 424 9 539 6 280 6 875 0 1050
-8 222 -22 355 -39 373 -43 44 -363 64 -563 36z"/>
<path d="M20490 14282 c-19 -1 -73 -12 -119 -23 -290 -72 -556 -280 -684 -534
-64 -129 -90 -243 -91 -395 -1 -276 93 -450 271 -504 56 -17 178 -6 253 24
170 68 289 168 435 365 158 212 254 384 311 555 24 73 29 101 29 195 0 127
-16 170 -87 236 -63 58 -194 92 -318 81z"/>
<path d="M14426 13413 c-1 -2 -22 -5 -47 -8 -189 -23 -465 -130 -757 -293
-330 -183 -763 -483 -1012 -698 -126 -109 -353 -331 -415 -405 -94 -113 -152
-189 -210 -274 -37 -55 -68 -101 -69 -103 -2 -1 -3 4 -3 10 -9 171 -62 376
-140 548 -75 163 -231 360 -378 475 -27 22 -52 43 -55 46 -13 16 -183 121
-255 157 -136 68 -304 129 -424 153 l-61 12 -67 -59 c-78 -69 -123 -135 -123
-180 0 -22 14 -52 45 -96 123 -174 136 -237 130 -613 -2 -154 -6 -291 -9 -305
-2 -14 -7 -57 -10 -95 -4 -39 -8 -81 -10 -95 -3 -14 -7 -52 -11 -85 -3 -33 -8
-69 -10 -80 -2 -11 -7 -42 -10 -70 -9 -71 -37 -239 -79 -465 -11 -60 -48 -241
-92 -445 -25 -121 -51 -244 -56 -272 -6 -29 -13 -53 -16 -54 -4 0 -29 -2 -57
-4 -27 -2 -84 -11 -125 -20 -41 -9 -86 -19 -100 -21 -70 -14 -557 -145 -835
-224 -94 -27 -195 -56 -225 -64 -30 -8 -125 -35 -210 -61 -158 -47 -325 -93
-370 -101 -14 -3 -45 -10 -70 -15 -194 -44 -430 -55 -560 -26 -214 49 -337
186 -356 396 l-6 67 30 2 c134 10 629 139 902 234 710 248 1231 567 1541 943
156 189 307 480 343 660 3 17 8 44 12 60 25 126 5 323 -46 440 -129 300 -502
509 -986 552 -153 14 -523 7 -634 -11 -14 -3 -47 -7 -75 -11 -236 -29 -493
-92 -755 -184 -51 -18 -70 -26 -170 -68 -78 -33 -265 -127 -348 -174 -407
-235 -797 -605 -1029 -978 -117 -188 -250 -478 -288 -631 -2 -8 -13 -46 -24
-85 -26 -93 -65 -292 -76 -386 -3 -25 -8 -56 -10 -70 -3 -13 -8 -71 -12 -129
-40 -593 110 -994 471 -1262 143 -106 389 -211 596 -253 8 -2 26 -6 40 -9 14
-3 36 -8 50 -10 14 -3 61 -11 105 -20 44 -8 121 -20 170 -26 50 -6 104 -13
121 -15 178 -24 534 -24 739 0 93 11 201 27 265 40 14 3 39 8 55 10 43 8 152
35 205 51 116 34 272 85 302 98 18 8 78 33 133 56 100 42 255 117 350 170 27
15 82 44 120 64 39 20 77 41 85 46 8 5 71 41 140 81 151 87 367 228 433 282
26 21 47 35 47 30 0 -5 -7 -54 -15 -109 -8 -54 -17 -121 -20 -149 -4 -27 -8
-61 -10 -73 -18 -112 -25 -548 -11 -645 9 -59 57 -130 114 -169 59 -41 173
-79 220 -74 20 2 66 7 102 10 36 4 79 9 95 11 17 3 55 7 85 10 30 4 69 8 85
10 17 2 59 7 94 11 76 8 117 36 199 134 72 86 78 94 99 127 9 15 20 30 23 33
39 33 185 308 519 980 221 443 415 830 432 860 126 220 388 524 639 740 41 36
77 67 80 70 54 54 368 290 540 406 134 90 407 264 416 264 2 0 35 20 74 45 39
25 72 45 74 45 7 0 310 201 381 253 544 396 712 702 509 927 -63 70 -176 130
-275 146 -43 6 -188 12 -193 7z m-5582 -1354 c107 -29 198 -105 250 -210 27
-54 34 -79 32 -117 -7 -166 -223 -359 -648 -581 -116 -60 -439 -211 -453 -211
-2 0 -30 -12 -62 -26 -96 -43 -304 -126 -485 -192 l-107 -39 -31 73 c-16 40
-30 81 -30 91 0 29 67 199 122 308 192 385 496 664 908 832 90 37 215 73 279
80 25 3 47 6 49 8 7 6 137 -6 176 -16z"/>
<path d="M19213 13348 c-35 -3 -106 -19 -159 -33 -423 -115 -753 -310 -1094
-647 -305 -300 -613 -672 -767 -923 -47 -77 -162 -280 -235 -415 -20 -36 -47
-85 -60 -110 -126 -227 -405 -785 -573 -1145 -78 -167 -130 -282 -146 -322
l-11 -28 -23 50 c-13 28 -41 123 -63 210 -161 633 -191 753 -196 775 -5 31
-21 101 -46 205 -10 44 -21 91 -23 105 -3 14 -10 43 -16 65 -5 22 -22 95 -36
162 -76 362 -211 658 -374 822 -145 145 -288 202 -515 203 -122 0 -177 -7
-236 -33 -86 -38 -123 -95 -122 -184 1 -53 61 -289 172 -685 29 -102 55 -194
57 -205 3 -11 44 -153 90 -315 186 -649 240 -855 317 -1195 36 -156 101 -481
111 -550 3 -22 7 -47 10 -55 2 -8 6 -31 9 -50 2 -19 13 -96 25 -170 21 -143
28 -194 36 -275 5 -46 8 -72 21 -165 13 -94 40 -209 69 -295 127 -370 377
-533 753 -492 322 35 560 165 737 402 38 52 265 490 338 655 14 30 34 76 46
102 53 117 191 474 271 698 26 74 94 263 149 420 146 409 315 855 372 977 10
24 19 45 19 47 0 11 174 384 244 525 83 164 197 374 265 484 22 37 41 69 41
72 0 2 17 32 39 67 21 35 124 207 229 383 198 331 312 514 396 634 58 83 69
137 38 187 -25 39 -75 52 -159 42z"/>
<path d="M24518 13095 c-2 -2 -27 -6 -57 -10 -57 -7 -64 -8 -151 -26 -61 -12
-194 -47 -225 -59 -11 -4 -60 -22 -110 -40 -194 -69 -493 -229 -643 -343 -30
-23 -67 -51 -82 -62 -35 -26 -98 -81 -181 -158 -36 -34 -112 -105 -170 -159
-211 -196 -384 -373 -584 -599 -44 -49 -194 -235 -240 -296 -21 -29 -40 -52
-41 -50 -1 1 -5 54 -8 118 -3 64 -8 123 -10 130 -3 8 -7 32 -10 54 -27 212
-136 491 -273 701 -159 240 -417 477 -623 571 -192 87 -329 100 -417 40 -58
-40 -73 -93 -68 -249 2 -74 6 -148 9 -164 3 -16 8 -54 11 -84 14 -110 20 -152
46 -300 12 -63 27 -149 34 -190 7 -41 16 -93 19 -115 21 -135 25 -165 31 -210
12 -112 16 -187 16 -320 0 -133 -2 -169 -16 -275 -3 -25 -7 -58 -9 -75 -2 -16
-9 -57 -15 -90 -6 -33 -13 -73 -15 -90 -8 -46 -24 -144 -35 -205 -17 -98 -72
-361 -107 -515 -20 -82 -37 -160 -40 -172 -2 -12 -28 -117 -58 -235 -47 -188
-75 -305 -91 -388 -11 -55 -15 -100 -16 -205 -2 -92 2 -118 18 -155 30 -65 72
-105 159 -152 69 -37 84 -42 140 -40 76 2 150 18 184 39 49 31 195 196 410
463 47 58 87 107 90 110 3 3 57 68 120 145 63 77 117 142 120 145 3 3 23 28
44 55 22 28 56 68 75 91 20 22 45 51 56 65 93 112 249 294 330 385 6 6 42 46
80 90 278 311 577 614 795 804 47 41 90 79 96 84 7 6 26 22 44 36 18 14 46 36
63 50 17 14 76 57 131 97 232 166 458 267 622 278 l53 3 -30 -80 c-16 -44 -32
-84 -34 -89 -9 -13 -64 -199 -91 -300 -26 -100 -27 -107 -44 -199 -6 -30 -12
-64 -14 -75 -2 -11 -7 -42 -10 -68 -4 -27 -9 -57 -11 -66 -5 -27 -17 -121 -21
-166 -22 -261 -24 -283 -25 -405 0 -108 8 -215 18 -233 2 -4 7 -20 9 -35 11
-58 75 -196 130 -279 153 -230 413 -409 689 -473 115 -27 157 -32 275 -32 93
0 139 4 205 16 11 2 40 7 65 11 68 11 69 11 157 39 191 61 269 170 196 275
-16 22 -39 45 -53 51 -54 25 -162 104 -218 158 -100 97 -171 229 -187 347 -28
212 31 442 237 925 57 133 61 144 103 250 69 175 142 403 161 505 36 190 48
417 31 577 -41 395 -222 654 -538 769 -46 17 -85 30 -87 29 -3 -1 -67 10 -97
17 -22 6 -312 12 -317 8z"/>
<path d="M906 12483 c-8 -62 -14 -103 -21 -143 -2 -14 -7 -45 -10 -70 -3 -25
-8 -56 -10 -70 -7 -38 -12 -74 -29 -195 -9 -60 -20 -137 -25 -170 -5 -33 -17
-107 -26 -165 -8 -58 -17 -116 -20 -130 -2 -14 -6 -47 -10 -74 -3 -27 -8 -52
-9 -55 -2 -3 -7 -28 -10 -56 -6 -41 -26 -162 -82 -500 -3 -16 -16 -91 -29
-165 -13 -74 -27 -151 -30 -170 -3 -19 -12 -66 -20 -105 -8 -38 -17 -86 -20
-105 -5 -30 -12 -68 -29 -155 -3 -11 -23 -110 -46 -220 -22 -110 -43 -211 -46
-225 -15 -74 -68 -306 -104 -455 -22 -93 -43 -177 -45 -186 -2 -9 -33 -132
-69 -274 -37 -142 -65 -259 -63 -261 2 -2 19 1 38 6 19 6 54 13 79 16 25 3 56
7 70 10 134 22 560 22 1285 -1 158 -5 798 -5 900 0 216 10 423 33 545 59 14 3
41 9 60 12 56 11 200 63 263 97 107 56 186 163 191 260 7 111 -58 274 -166
419 -66 87 -247 275 -358 369 -104 88 -260 213 -480 384 -212 164 -416 324
-460 361 -276 234 -299 255 -434 390 -45 44 -115 118 -156 163 -41 46 -80 89
-85 95 -17 18 -99 126 -151 201 -231 326 -353 673 -369 1049 -2 60 -6 110 -8
113 -3 2 -8 -22 -11 -54z"/>
<path d="M19941 12142 c-24 -12 -44 -35 -64 -72 -17 -30 -78 -131 -136 -225
-59 -93 -171 -273 -250 -400 -79 -126 -151 -241 -160 -255 -10 -14 -52 -83
-95 -155 -43 -71 -82 -137 -87 -145 -27 -44 -169 -293 -169 -296 0 -1 -15 -29
-34 -61 -291 -505 -549 -1129 -605 -1468 -19 -115 -22 -140 -22 -225 0 -181
42 -312 133 -411 48 -52 166 -117 243 -133 17 -4 41 -9 55 -12 61 -13 235 -13
302 1 141 29 176 90 157 269 -6 64 -4 75 26 145 59 139 174 384 354 754 112
230 170 353 258 547 41 91 81 179 88 195 8 17 30 71 50 120 20 50 42 104 50
120 52 118 175 488 200 603 2 9 13 58 24 107 11 50 22 110 26 135 3 25 9 59
12 75 15 85 9 270 -14 412 -37 235 -79 340 -152 378 -41 20 -146 19 -190 -3z"/>
<path d="M5390 8493 c0 -15 -93 -153 -122 -183 -113 -114 -273 -217 -433 -279
-33 -13 -69 -27 -80 -32 -57 -26 -328 -99 -415 -113 -19 -3 -69 -12 -111 -20
-42 -8 -107 -17 -145 -21 -38 -4 -80 -8 -93 -10 -152 -25 -729 -25 -804 0 -6
2 -30 6 -52 9 -22 3 -53 8 -70 11 -22 3 -15 -3 27 -24 55 -28 221 -77 291 -86
17 -3 43 -7 56 -10 31 -6 161 -23 226 -29 301 -29 991 -29 1325 -1 19 1 80 6
135 10 55 3 111 8 125 10 14 3 57 7 95 10 39 3 81 8 95 10 14 3 48 7 75 11 28
3 61 7 75 9 14 2 63 9 110 15 89 12 364 65 415 80 91 27 221 73 229 80 9 9
-23 25 -79 40 -121 32 -367 144 -505 230 -94 59 -221 155 -291 222 -63 59 -79
72 -79 61z"/>
</g>
</svg>
